<svg width="29" height="29" viewBox="0 0 29 29" fill="none" xmlns="http://www.w3.org/2000/svg">
<g filter="url(#filter0_d_143_313)">
<path d="M12.75 11.6667H4.58333C4.23333 11.6667 4 11.9 4 12.25V20.4167C4 20.7667 4.23333 21 4.58333 21H12.75C13.1 21 13.3333 20.7667 13.3333 20.4167V12.25C13.3333 11.9 13.1 11.6667 12.75 11.6667ZM12.1667 19.8333H5.16667V12.8333H12.1667V19.8333ZM12.75 0H4.58333C4.23333 0 4 0.233333 4 0.583333V8.75C4 9.1 4.23333 9.33333 4.58333 9.33333H12.75C13.1 9.33333 13.3333 9.1 13.3333 8.75V0.583333C13.3333 0.233333 13.1 0 12.75 0ZM12.1667 8.16667H5.16667V1.16667H12.1667V8.16667ZM24.4167 0H16.25C15.9 0 15.6667 0.233333 15.6667 0.583333V8.75C15.6667 9.1 15.9 9.33333 16.25 9.33333H24.4167C24.7667 9.33333 25 9.1 25 8.75V0.583333C25 0.233333 24.7667 0 24.4167 0ZM23.8333 8.16667H16.8333V1.16667H23.8333V8.16667ZM24.4167 15.75H20.9167V12.25C20.9167 11.9 20.6833 11.6667 20.3333 11.6667C19.9833 11.6667 19.75 11.9 19.75 12.25V15.75H16.25C15.9 15.75 15.6667 15.9833 15.6667 16.3333C15.6667 16.6833 15.9 16.9167 16.25 16.9167H19.75V20.4167C19.75 20.7667 19.9833 21 20.3333 21C20.6833 21 20.9167 20.7667 20.9167 20.4167V16.9167H24.4167C24.7667 16.9167 25 16.6833 25 16.3333C25 15.9833 24.7667 15.75 24.4167 15.75Z" fill="black"/>
</g>
<defs>
<filter id="filter0_d_143_313" x="0" y="0" width="29" height="29" filterUnits="userSpaceOnUse" color-interpolation-filters="sRGB">
<feFlood flood-opacity="0" result="BackgroundImageFix"/>
<feColorMatrix in="SourceAlpha" type="matrix" values="0 0 0 0 0 0 0 0 0 0 0 0 0 0 0 0 0 0 127 0" result="hardAlpha"/>
<feOffset dy="4"/>
<feGaussianBlur stdDeviation="2"/>
<feComposite in2="hardAlpha" operator="out"/>
<feColorMatrix type="matrix" values="0 0 0 0 0 0 0 0 0 0 0 0 0 0 0 0 0 0 0.25 0"/>
<feBlend mode="normal" in2="BackgroundImageFix" result="effect1_dropShadow_143_313"/>
<feBlend mode="normal" in="SourceGraphic" in2="effect1_dropShadow_143_313" result="shape"/>
</filter>
</defs>
</svg>
