<svg width="34" height="34" viewBox="0 0 34 34" fill="none" xmlns="http://www.w3.org/2000/svg">
<g filter="url(#filter0_d_143_311)">
<path d="M11 6C11 4.81331 11.3519 3.65328 12.0112 2.66658C12.6705 1.67989 13.6075 0.910851 14.7039 0.456726C15.8003 0.00259972 17.0067 -0.11622 18.1705 0.115291C19.3344 0.346802 20.4035 0.918247 21.2426 1.75736C22.0818 2.59648 22.6532 3.66558 22.8847 4.82946C23.1162 5.99335 22.9974 7.19975 22.5433 8.2961C22.0892 9.39246 21.3201 10.3295 20.3334 10.9888C19.3467 11.6481 18.1867 12 17 12C15.4087 12 13.8826 11.3679 12.7574 10.2426C11.6321 9.11743 11 7.5913 11 6ZM27 26H7C6.20435 26 5.44129 25.6839 4.87868 25.1213C4.31607 24.5587 4 23.7957 4 23C4 20.6131 4.94821 18.3239 6.63604 16.636C8.32387 14.9482 10.6131 14 13 14H21C23.3869 14 25.6761 14.9482 27.364 16.636C29.0518 18.3239 30 20.6131 30 23C30 23.7957 29.6839 24.5587 29.1213 25.1213C28.5587 25.6839 27.7956 26 27 26Z" fill="black"/>
</g>
<defs>
<filter id="filter0_d_143_311" x="0" y="0" width="34" height="34" filterUnits="userSpaceOnUse" color-interpolation-filters="sRGB">
<feFlood flood-opacity="0" result="BackgroundImageFix"/>
<feColorMatrix in="SourceAlpha" type="matrix" values="0 0 0 0 0 0 0 0 0 0 0 0 0 0 0 0 0 0 127 0" result="hardAlpha"/>
<feOffset dy="4"/>
<feGaussianBlur stdDeviation="2"/>
<feComposite in2="hardAlpha" operator="out"/>
<feColorMatrix type="matrix" values="0 0 0 0 0 0 0 0 0 0 0 0 0 0 0 0 0 0 0.25 0"/>
<feBlend mode="normal" in2="BackgroundImageFix" result="effect1_dropShadow_143_311"/>
<feBlend mode="normal" in="SourceGraphic" in2="effect1_dropShadow_143_311" result="shape"/>
</filter>
</defs>
</svg>
