<svg width="43" height="25" viewBox="0 0 43 25" fill="none" xmlns="http://www.w3.org/2000/svg">
<path id="Vector" d="M20.9299 6.48566L7.16723 14.9604V24.107C7.16723 24.3439 7.29307 24.571 7.51705 24.7385C7.74104 24.9059 8.04482 25 8.36159 25L16.7265 24.9838C17.0423 24.9826 17.3445 24.888 17.5672 24.7207C17.7899 24.5534 17.9149 24.3269 17.9149 24.0909V18.7493C17.9149 18.5125 18.0407 18.2853 18.2647 18.1179C18.4887 17.9504 18.7925 17.8563 19.1093 17.8563H23.8867C24.2034 17.8563 24.5072 17.9504 24.7312 18.1179C24.9552 18.2853 25.081 18.5125 25.081 18.7493V24.087C25.0805 24.2045 25.1111 24.3209 25.1709 24.4295C25.2307 24.5382 25.3186 24.637 25.4295 24.7202C25.5405 24.8034 25.6723 24.8694 25.8175 24.9145C25.9626 24.9595 26.1182 24.9827 26.2754 24.9827L34.6373 25C34.9541 25 35.2579 24.9059 35.4819 24.7385C35.7059 24.571 35.8317 24.3439 35.8317 24.107V14.9542L22.072 6.48566C21.9102 6.38817 21.7087 6.33501 21.501 6.33501C21.2932 6.33501 21.0917 6.38817 20.9299 6.48566ZM42.6694 12.2458L36.4289 8.39993V0.669718C36.4289 0.492097 36.3345 0.321752 36.1665 0.196156C35.9985 0.0705595 35.7707 0 35.5331 0H31.3529C31.1153 0 30.8875 0.0705595 30.7195 0.196156C30.5515 0.321752 30.4571 0.492097 30.4571 0.669718V4.72207L23.774 0.611117C23.1326 0.21653 22.3278 0.000788785 21.4972 0.000788785C20.6666 0.000788785 19.8618 0.21653 19.2205 0.611117L0.325087 12.2458C0.234381 12.3018 0.159337 12.3707 0.104241 12.4484C0.049146 12.5262 0.0150793 12.6113 0.00398776 12.6989C-0.00710375 12.7865 0.00499736 12.8748 0.0395997 12.9589C0.074202 13.043 0.130627 13.1212 0.205652 13.189L2.10915 14.9191C2.18397 14.9871 2.276 15.0434 2.37997 15.0848C2.48394 15.1262 2.59781 15.1519 2.71505 15.1603C2.8323 15.1688 2.95063 15.1598 3.06326 15.1341C3.17589 15.1083 3.28061 15.0661 3.37143 15.01L20.9299 4.19746C21.0917 4.09997 21.2932 4.04681 21.501 4.04681C21.7087 4.04681 21.9102 4.09997 22.072 4.19746L39.6312 15.01C39.7219 15.0661 39.8264 15.1083 39.9389 15.1342C40.0514 15.1601 40.1696 15.1691 40.2867 15.1608C40.4039 15.1525 40.5177 15.1271 40.6217 15.0859C40.7257 15.0447 40.8178 14.9886 40.8928 14.9208L42.7963 13.1906C42.8712 13.1225 42.9274 13.0439 42.9616 12.9594C42.9958 12.875 43.0073 12.7863 42.9955 12.6985C42.9837 12.6107 42.9488 12.5255 42.8929 12.4478C42.8369 12.3701 42.7609 12.3015 42.6694 12.2458Z" fill="black"/>
</svg>
